<mxfile host="app.diagrams.net" modified="2023-06-04T17:12:14.759Z" agent="Mozilla/5.0 (Macintosh; Intel Mac OS X 10.15; rv:109.0) Gecko/20100101 Firefox/113.0" etag="G7v5JJ8uedeZWpq7Eax4" version="21.3.7" type="device">
  <diagram name="Seite-1" id="70-ndwaXO_-ZKMcCtz0t">
    <mxGraphModel dx="2074" dy="1088" grid="1" gridSize="10" guides="1" tooltips="1" connect="1" arrows="1" fold="1" page="1" pageScale="1" pageWidth="827" pageHeight="1169" background="none" math="0" shadow="0">
      <root>
        <mxCell id="0" />
        <mxCell id="1" parent="0" />
        <mxCell id="PvXzJawVP1ArEgsTcX2M-10" style="edgeStyle=orthogonalEdgeStyle;rounded=0;orthogonalLoop=1;jettySize=auto;html=1;exitX=0.5;exitY=1;exitDx=0;exitDy=0;entryX=0;entryY=0.5;entryDx=0;entryDy=0;fontColor=#000000;labelBackgroundColor=none;" edge="1" parent="1" source="PvXzJawVP1ArEgsTcX2M-1" target="PvXzJawVP1ArEgsTcX2M-8">
          <mxGeometry relative="1" as="geometry" />
        </mxCell>
        <mxCell id="PvXzJawVP1ArEgsTcX2M-1" value="&lt;b&gt;Fuzzer&lt;/b&gt;" style="rounded=0;whiteSpace=wrap;html=1;labelBackgroundColor=none;" vertex="1" parent="1">
          <mxGeometry y="10" width="120" height="60" as="geometry" />
        </mxCell>
        <mxCell id="PvXzJawVP1ArEgsTcX2M-2" value="&lt;b&gt;process_mutation_poll&lt;/b&gt;" style="shape=process;whiteSpace=wrap;html=1;backgroundOutline=1;labelBackgroundColor=none;" vertex="1" parent="1">
          <mxGeometry x="160" width="230" height="30" as="geometry" />
        </mxCell>
        <mxCell id="PvXzJawVP1ArEgsTcX2M-3" value="&lt;b&gt;process_mutation_poll&lt;/b&gt;" style="shape=process;whiteSpace=wrap;html=1;backgroundOutline=1;labelBackgroundColor=none;" vertex="1" parent="1">
          <mxGeometry x="170" y="10" width="230" height="30" as="geometry" />
        </mxCell>
        <mxCell id="PvXzJawVP1ArEgsTcX2M-4" value="&lt;b&gt;process_mutation_poll&lt;/b&gt;" style="shape=process;whiteSpace=wrap;html=1;backgroundOutline=1;labelBackgroundColor=none;" vertex="1" parent="1">
          <mxGeometry x="180" y="20" width="230" height="30" as="geometry" />
        </mxCell>
        <mxCell id="PvXzJawVP1ArEgsTcX2M-5" value="&lt;b&gt;process_mutation_poll&lt;/b&gt;" style="shape=process;whiteSpace=wrap;html=1;backgroundOutline=1;labelBackgroundColor=none;" vertex="1" parent="1">
          <mxGeometry x="190" y="30" width="230" height="30" as="geometry" />
        </mxCell>
        <mxCell id="PvXzJawVP1ArEgsTcX2M-35" style="edgeStyle=orthogonalEdgeStyle;rounded=0;orthogonalLoop=1;jettySize=auto;html=1;exitX=0.25;exitY=1;exitDx=0;exitDy=0;entryX=0.25;entryY=0;entryDx=0;entryDy=0;fontColor=#000000;labelBackgroundColor=none;" edge="1" parent="1" source="PvXzJawVP1ArEgsTcX2M-6" target="PvXzJawVP1ArEgsTcX2M-8">
          <mxGeometry relative="1" as="geometry">
            <Array as="points">
              <mxPoint x="274" y="70" />
            </Array>
          </mxGeometry>
        </mxCell>
        <mxCell id="PvXzJawVP1ArEgsTcX2M-51" style="edgeStyle=orthogonalEdgeStyle;rounded=0;orthogonalLoop=1;jettySize=auto;html=1;exitX=0.75;exitY=1;exitDx=0;exitDy=0;entryX=0.787;entryY=0.006;entryDx=0;entryDy=0;entryPerimeter=0;fontColor=#000000;labelBackgroundColor=none;" edge="1" parent="1" source="PvXzJawVP1ArEgsTcX2M-6" target="PvXzJawVP1ArEgsTcX2M-8">
          <mxGeometry relative="1" as="geometry">
            <Array as="points">
              <mxPoint x="357" y="70" />
            </Array>
          </mxGeometry>
        </mxCell>
        <mxCell id="PvXzJawVP1ArEgsTcX2M-53" style="edgeStyle=orthogonalEdgeStyle;orthogonalLoop=1;jettySize=auto;html=1;exitX=1;exitY=0.5;exitDx=0;exitDy=0;entryX=0;entryY=0.5;entryDx=0;entryDy=0;entryPerimeter=0;curved=1;fontColor=#000000;labelBackgroundColor=none;" edge="1" parent="1" source="PvXzJawVP1ArEgsTcX2M-6" target="PvXzJawVP1ArEgsTcX2M-46">
          <mxGeometry relative="1" as="geometry" />
        </mxCell>
        <mxCell id="PvXzJawVP1ArEgsTcX2M-54" style="edgeStyle=orthogonalEdgeStyle;orthogonalLoop=1;jettySize=auto;html=1;exitX=1;exitY=0.5;exitDx=0;exitDy=0;entryX=-0.024;entryY=0.872;entryDx=0;entryDy=0;entryPerimeter=0;curved=1;fontColor=#000000;labelBackgroundColor=none;" edge="1" parent="1" source="PvXzJawVP1ArEgsTcX2M-6" target="PvXzJawVP1ArEgsTcX2M-48">
          <mxGeometry relative="1" as="geometry">
            <Array as="points">
              <mxPoint x="460" y="55" />
              <mxPoint x="460" y="100" />
              <mxPoint x="570" y="100" />
              <mxPoint x="570" y="96" />
            </Array>
          </mxGeometry>
        </mxCell>
        <mxCell id="PvXzJawVP1ArEgsTcX2M-6" value="&lt;b&gt;process_mutation_poll()&lt;/b&gt;" style="shape=process;whiteSpace=wrap;html=1;backgroundOutline=1;labelBackgroundColor=none;" vertex="1" parent="1">
          <mxGeometry x="200" y="40" width="230" height="30" as="geometry" />
        </mxCell>
        <mxCell id="PvXzJawVP1ArEgsTcX2M-50" style="edgeStyle=orthogonalEdgeStyle;rounded=0;orthogonalLoop=1;jettySize=auto;html=1;exitX=0.5;exitY=0;exitDx=0;exitDy=0;entryX=0.5;entryY=1;entryDx=0;entryDy=0;fontColor=#000000;labelBackgroundColor=none;" edge="1" parent="1" source="PvXzJawVP1ArEgsTcX2M-8" target="PvXzJawVP1ArEgsTcX2M-6">
          <mxGeometry relative="1" as="geometry">
            <Array as="points">
              <mxPoint x="315" y="160" />
            </Array>
          </mxGeometry>
        </mxCell>
        <mxCell id="PvXzJawVP1ArEgsTcX2M-8" value="&lt;b&gt;Mutator&lt;/b&gt;" style="rounded=0;whiteSpace=wrap;html=1;labelBackgroundColor=none;" vertex="1" parent="1">
          <mxGeometry x="235" y="160" width="155" height="60" as="geometry" />
        </mxCell>
        <mxCell id="PvXzJawVP1ArEgsTcX2M-11" value="&lt;br&gt;&lt;div&gt;&lt;br&gt;&lt;/div&gt;&lt;div&gt;seed&lt;/div&gt;" style="shape=note;whiteSpace=wrap;html=1;backgroundOutline=1;darkOpacity=0.05;labelBackgroundColor=none;" vertex="1" parent="1">
          <mxGeometry x="44" y="160" width="46" height="60" as="geometry" />
        </mxCell>
        <mxCell id="PvXzJawVP1ArEgsTcX2M-14" value="1" style="ellipse;whiteSpace=wrap;html=1;aspect=fixed;labelBackgroundColor=none;fontStyle=1" vertex="1" parent="1">
          <mxGeometry x="80" y="151" width="20" height="20" as="geometry" />
        </mxCell>
        <mxCell id="PvXzJawVP1ArEgsTcX2M-21" value="&lt;div align=&quot;left&quot;&gt;&lt;b&gt;Constant 1:&lt;/b&gt;&lt;/div&gt;&lt;div align=&quot;left&quot;&gt;- value&lt;/div&gt;&lt;div align=&quot;left&quot;&gt;- sample range&lt;b&gt;&lt;br&gt;&lt;/b&gt;&lt;/div&gt;" style="rounded=0;whiteSpace=wrap;html=1;align=center;labelBackgroundColor=none;" vertex="1" parent="1">
          <mxGeometry x="450" y="120" width="110" height="60" as="geometry" />
        </mxCell>
        <mxCell id="PvXzJawVP1ArEgsTcX2M-25" value="&lt;div align=&quot;left&quot;&gt;&lt;b&gt;Constant 2:&lt;/b&gt;&lt;/div&gt;&lt;div align=&quot;left&quot;&gt;- value&lt;/div&gt;&lt;div align=&quot;left&quot;&gt;- sample range&lt;b&gt;&lt;br&gt;&lt;/b&gt;&lt;/div&gt;" style="rounded=0;whiteSpace=wrap;html=1;align=center;labelBackgroundColor=none;" vertex="1" parent="1">
          <mxGeometry x="470" y="140" width="110" height="60" as="geometry" />
        </mxCell>
        <mxCell id="PvXzJawVP1ArEgsTcX2M-26" value="&lt;div align=&quot;left&quot;&gt;&lt;b&gt;Constant ...:&lt;/b&gt;&lt;/div&gt;&lt;div align=&quot;left&quot;&gt;- value&lt;/div&gt;&lt;div align=&quot;left&quot;&gt;- sample range&lt;b&gt;&lt;br&gt;&lt;/b&gt;&lt;/div&gt;" style="rounded=0;whiteSpace=wrap;html=1;align=center;labelBackgroundColor=none;" vertex="1" parent="1">
          <mxGeometry x="490" y="160" width="110" height="60" as="geometry" />
        </mxCell>
        <mxCell id="PvXzJawVP1ArEgsTcX2M-27" value="&lt;div align=&quot;left&quot;&gt;&lt;b&gt;Constant n:&lt;/b&gt;&lt;/div&gt;&lt;div align=&quot;left&quot;&gt;- value&lt;/div&gt;&lt;div align=&quot;left&quot;&gt;- sample range&lt;b&gt;&lt;br&gt;&lt;/b&gt;&lt;/div&gt;" style="rounded=0;whiteSpace=wrap;html=1;align=center;labelBackgroundColor=none;" vertex="1" parent="1">
          <mxGeometry x="525" y="180" width="110" height="60" as="geometry" />
        </mxCell>
        <mxCell id="PvXzJawVP1ArEgsTcX2M-28" style="edgeStyle=orthogonalEdgeStyle;orthogonalLoop=1;jettySize=auto;html=1;exitX=1;exitY=0.5;exitDx=0;exitDy=0;entryX=0;entryY=0.5;entryDx=0;entryDy=0;curved=1;fontColor=#000000;labelBackgroundColor=none;" edge="1" parent="1" source="PvXzJawVP1ArEgsTcX2M-1" target="PvXzJawVP1ArEgsTcX2M-2">
          <mxGeometry relative="1" as="geometry" />
        </mxCell>
        <mxCell id="PvXzJawVP1ArEgsTcX2M-29" style="edgeStyle=orthogonalEdgeStyle;rounded=1;orthogonalLoop=1;jettySize=auto;html=1;exitX=1;exitY=0.5;exitDx=0;exitDy=0;entryX=0;entryY=0.5;entryDx=0;entryDy=0;fontColor=#000000;labelBackgroundColor=none;" edge="1" parent="1" source="PvXzJawVP1ArEgsTcX2M-1" target="PvXzJawVP1ArEgsTcX2M-3">
          <mxGeometry relative="1" as="geometry" />
        </mxCell>
        <mxCell id="PvXzJawVP1ArEgsTcX2M-30" style="edgeStyle=orthogonalEdgeStyle;orthogonalLoop=1;jettySize=auto;html=1;exitX=1;exitY=0.5;exitDx=0;exitDy=0;entryX=0;entryY=0.5;entryDx=0;entryDy=0;curved=1;fontColor=#000000;labelBackgroundColor=none;" edge="1" parent="1" source="PvXzJawVP1ArEgsTcX2M-1" target="PvXzJawVP1ArEgsTcX2M-4">
          <mxGeometry relative="1" as="geometry" />
        </mxCell>
        <mxCell id="PvXzJawVP1ArEgsTcX2M-31" style="edgeStyle=orthogonalEdgeStyle;orthogonalLoop=1;jettySize=auto;html=1;exitX=1;exitY=0.5;exitDx=0;exitDy=0;entryX=0;entryY=0.5;entryDx=0;entryDy=0;curved=1;fontColor=#000000;labelBackgroundColor=none;" edge="1" parent="1" source="PvXzJawVP1ArEgsTcX2M-1" target="PvXzJawVP1ArEgsTcX2M-6">
          <mxGeometry relative="1" as="geometry" />
        </mxCell>
        <mxCell id="PvXzJawVP1ArEgsTcX2M-32" value="2" style="ellipse;whiteSpace=wrap;html=1;aspect=fixed;labelBackgroundColor=none;fontStyle=1" vertex="1" parent="1">
          <mxGeometry x="140" y="60" width="20" height="20" as="geometry" />
        </mxCell>
        <mxCell id="PvXzJawVP1ArEgsTcX2M-33" value="4" style="ellipse;whiteSpace=wrap;html=1;aspect=fixed;labelBackgroundColor=none;fontStyle=1" vertex="1" parent="1">
          <mxGeometry x="410" y="140" width="20" height="20" as="geometry" />
        </mxCell>
        <mxCell id="PvXzJawVP1ArEgsTcX2M-43" value="1" style="ellipse;whiteSpace=wrap;html=1;aspect=fixed;labelBackgroundColor=none;fontStyle=1" vertex="1" parent="1">
          <mxGeometry x="610" y="140" width="20" height="20" as="geometry" />
        </mxCell>
        <mxCell id="PvXzJawVP1ArEgsTcX2M-44" value="3" style="ellipse;whiteSpace=wrap;html=1;aspect=fixed;labelBackgroundColor=none;fontStyle=1" vertex="1" parent="1">
          <mxGeometry x="249.5" y="100" width="20" height="20" as="geometry" />
        </mxCell>
        <mxCell id="PvXzJawVP1ArEgsTcX2M-45" value="5" style="ellipse;whiteSpace=wrap;html=1;aspect=fixed;labelBackgroundColor=none;fontStyle=1" vertex="1" parent="1">
          <mxGeometry x="291" y="100" width="20" height="20" as="geometry" />
        </mxCell>
        <mxCell id="PvXzJawVP1ArEgsTcX2M-46" value="&lt;div&gt;&lt;b&gt;&lt;br&gt;&lt;/b&gt;&lt;/div&gt;&lt;div&gt;&lt;b&gt;&lt;br&gt;&lt;/b&gt;&lt;/div&gt;&lt;div&gt;&lt;b&gt;assembly&lt;/b&gt;&lt;/div&gt;&lt;div&gt;&lt;b&gt;compiler 1&lt;br&gt;&lt;/b&gt;&lt;/div&gt;" style="shape=note;whiteSpace=wrap;html=1;backgroundOutline=1;darkOpacity=0.05;labelBackgroundColor=none;" vertex="1" parent="1">
          <mxGeometry x="480" width="70" height="88.75" as="geometry" />
        </mxCell>
        <mxCell id="PvXzJawVP1ArEgsTcX2M-48" value="&lt;div&gt;&lt;b&gt;&lt;br&gt;&lt;/b&gt;&lt;/div&gt;&lt;div&gt;&lt;b&gt;&lt;br&gt;&lt;/b&gt;&lt;/div&gt;&lt;div&gt;&lt;b&gt;assembly&lt;/b&gt;&lt;/div&gt;&lt;div&gt;&lt;b&gt;compiler 2&lt;br&gt;&lt;/b&gt;&lt;/div&gt;" style="shape=note;whiteSpace=wrap;html=1;backgroundOutline=1;darkOpacity=0.05;labelBackgroundColor=none;" vertex="1" parent="1">
          <mxGeometry x="585" y="20" width="70" height="87.5" as="geometry" />
        </mxCell>
        <mxCell id="PvXzJawVP1ArEgsTcX2M-52" value="7" style="ellipse;whiteSpace=wrap;html=1;aspect=fixed;labelBackgroundColor=none;fontStyle=1" vertex="1" parent="1">
          <mxGeometry x="332" y="100" width="20" height="20" as="geometry" />
        </mxCell>
        <mxCell id="PvXzJawVP1ArEgsTcX2M-55" value="6" style="ellipse;whiteSpace=wrap;html=1;aspect=fixed;labelBackgroundColor=none;fontStyle=1" vertex="1" parent="1">
          <mxGeometry x="440" width="20" height="20" as="geometry" />
        </mxCell>
        <mxCell id="PvXzJawVP1ArEgsTcX2M-57" style="edgeStyle=orthogonalEdgeStyle;orthogonalLoop=1;jettySize=auto;html=1;exitX=1;exitY=0.5;exitDx=0;exitDy=0;entryX=0;entryY=0.75;entryDx=0;entryDy=0;curved=1;fontColor=#000000;labelBackgroundColor=none;" edge="1" parent="1" source="PvXzJawVP1ArEgsTcX2M-8" target="PvXzJawVP1ArEgsTcX2M-21">
          <mxGeometry relative="1" as="geometry" />
        </mxCell>
        <mxCell id="PvXzJawVP1ArEgsTcX2M-58" style="edgeStyle=orthogonalEdgeStyle;orthogonalLoop=1;jettySize=auto;html=1;exitX=1;exitY=0.5;exitDx=0;exitDy=0;entryX=0;entryY=0.75;entryDx=0;entryDy=0;curved=1;fontColor=#000000;labelBackgroundColor=none;" edge="1" parent="1" source="PvXzJawVP1ArEgsTcX2M-8" target="PvXzJawVP1ArEgsTcX2M-25">
          <mxGeometry relative="1" as="geometry" />
        </mxCell>
        <mxCell id="PvXzJawVP1ArEgsTcX2M-59" style="edgeStyle=orthogonalEdgeStyle;orthogonalLoop=1;jettySize=auto;html=1;exitX=1;exitY=0.5;exitDx=0;exitDy=0;entryX=0;entryY=0.75;entryDx=0;entryDy=0;curved=1;fontColor=#000000;labelBackgroundColor=none;" edge="1" parent="1" source="PvXzJawVP1ArEgsTcX2M-8" target="PvXzJawVP1ArEgsTcX2M-26">
          <mxGeometry relative="1" as="geometry" />
        </mxCell>
        <mxCell id="PvXzJawVP1ArEgsTcX2M-60" style="edgeStyle=orthogonalEdgeStyle;orthogonalLoop=1;jettySize=auto;html=1;exitX=1;exitY=0.5;exitDx=0;exitDy=0;entryX=0;entryY=0.75;entryDx=0;entryDy=0;curved=1;fontColor=#000000;labelBackgroundColor=none;" edge="1" parent="1" source="PvXzJawVP1ArEgsTcX2M-8" target="PvXzJawVP1ArEgsTcX2M-27">
          <mxGeometry relative="1" as="geometry">
            <Array as="points">
              <mxPoint x="440" y="190" />
              <mxPoint x="440" y="225" />
            </Array>
          </mxGeometry>
        </mxCell>
        <mxCell id="PvXzJawVP1ArEgsTcX2M-62" value="vs." style="text;html=1;align=center;verticalAlign=middle;resizable=0;points=[];autosize=1;labelBackgroundColor=none;" vertex="1" parent="1">
          <mxGeometry x="550" y="40" width="40" height="30" as="geometry" />
        </mxCell>
      </root>
    </mxGraphModel>
  </diagram>
</mxfile>
